<svg xmlns="http://www.w3.org/2000/svg" viewBox="0 0 64 64">
  <defs>
    <linearGradient id="bg" x1="10%" y1="10%" x2="90%" y2="90%">
      <stop offset="0%" stop-color="#ffb36b" />
      <stop offset="100%" stop-color="#ff6b81" />
    </linearGradient>
  </defs>
  <rect width="64" height="64" rx="18" fill="url(#bg)" />
  <path d="M18 25 24 11 31 23Z" fill="#fff3df" />
  <path d="M46 25 40 11 33 23Z" fill="#fff3df" />
  <circle cx="32" cy="35" r="17" fill="#fff3df" />
  <path d="M24 27 27 22 30 27" fill="#ffc3b3" />
  <path d="M34 27 37 22 40 27" fill="#ffc3b3" />
  <circle cx="26" cy="34" r="2.3" fill="#3d2b2b" />
  <circle cx="38" cy="34" r="2.3" fill="#3d2b2b" />
  <path d="M32 37 29 40h6Z" fill="#ff8f80" />
  <path d="M28 43c1.8 1.9 6.2 1.9 8 0" fill="none" stroke="#3d2b2b" stroke-linecap="round" stroke-width="2" />
  <path d="M22 39h-7M22 42h-6M42 39h7M42 42h6" fill="none" stroke="#3d2b2b" stroke-linecap="round" stroke-width="2" />
</svg>
